# xmcd
#
# Track frame offsets: 
#        150
#        18570
#        35924
#        50785
#        70506
#        87838
#        97721
#        112477
#        128569
#        144447
#        160509
#
# Disc length: 2226 seconds
#
# Revision: 0
# Processed by: cddbd v1.5.2PL0 Copyright (c) Steve Scherf et al.
# Submitted via: ExactAudioCopyFreeDBPlugin 1.0
#
DISCID=8f08b00b
DTITLE=Active Child - Mercy
DYEAR=2015
DGENRE=R&B
TTITLE0=1999
TTITLE1=These Arms
TTITLE2=Never Far Away
TTITLE3=Darling
TTITLE4=Mercy
TTITLE5=Midnight Swim
TTITLE6=Stranger
TTITLE7=Temptation
TTITLE8=Lazarus
TTITLE9=Too Late
TTITLE10=No More Mistress (Bonus Track)
EXTD=
EXTT0=
EXTT1=
EXTT2=
EXTT3=
EXTT4=
EXTT5=
EXTT6=
EXTT7=
EXTT8=
EXTT9=
EXTT10=
PLAYORDER=
